<?xml version="1.0" encoding="UTF-8" standalone="no"?>
<!-- Created with Inkscape (http://www.inkscape.org/) -->

<svg
   width="359"
   height="120"
   viewBox="0 0 94.985414 31.75"
   version="1.1"
   id="svg5"
   inkscape:version="1.1.2 (0a00cf5339, 2022-02-04)"
   sodipodi:docname="gocada_logo_03a9f4.svg"
   xmlns:inkscape="http://www.inkscape.org/namespaces/inkscape"
   xmlns:sodipodi="http://sodipodi.sourceforge.net/DTD/sodipodi-0.dtd"
   xmlns="http://www.w3.org/2000/svg"
   xmlns:svg="http://www.w3.org/2000/svg">
  <sodipodi:namedview
     id="namedview7"
     pagecolor="#ffffff"
     bordercolor="#000000"
     borderopacity="0.25"
     inkscape:showpageshadow="2"
     inkscape:pageopacity="0.0"
     inkscape:pagecheckerboard="0"
     inkscape:deskcolor="#d1d1d1"
     inkscape:document-units="mm"
     showgrid="false"
     inkscape:zoom="1.9855336"
     inkscape:cx="160.91392"
     inkscape:cy="60.688975"
     inkscape:window-width="1846"
     inkscape:window-height="1016"
     inkscape:window-x="0"
     inkscape:window-y="0"
     inkscape:window-maximized="1"
     inkscape:current-layer="layer1"
     inkscape:pageshadow="2" />
  <defs
     id="defs2" />
  <g
     inkscape:label="Layer 1"
     inkscape:groupmode="layer"
     id="layer1">
    <g
       aria-label="GOCADA"
       id="text236"
       style="font-size:17.1305px;font-family:Chandas;-inkscape-font-specification:Chandas;fill:#03a9f4;stroke-width:0;fill-opacity:0.84552783"
       inkscape:highlight-color="#0d4398">
      <path
         d="M 29.022226,19.757969 V 16.403804 H 26.26194 v -1.388508 h 4.433186 v 5.361646 q -0.978647,0.694254 -2.158042,1.053927 -1.179394,0.35131 -2.517715,0.35131 -2.927576,0 -4.583747,-1.706359 -1.647807,-1.714723 -1.647807,-4.767766 0,-3.061408 1.647807,-4.767767 1.656171,-1.7147226 4.583747,-1.7147226 1.221218,0 2.316967,0.3011221 1.104115,0.3011221 2.032574,0.8866375 v 1.798368 q -0.936824,-0.794628 -1.990751,-1.196124 -1.053927,-0.401496 -2.216593,-0.401496 -2.291874,0 -3.446175,1.279769 -1.145937,1.279769 -1.145937,3.814213 0,2.526079 1.145937,3.805848 1.154301,1.279769 3.446175,1.279769 0.895002,0 1.59762,-0.150561 0.702618,-0.158925 1.26304,-0.485141 z"
         style="font-family:'Lohit Kannada';-inkscape-font-specification:'Lohit Kannada';fill:#03a9f4;fill-opacity:0.84552783"
         id="path9542" />
      <path
         d="m 38.850516,10.197343 q -1.84019,0 -2.927576,1.371778 -1.07902,1.371779 -1.07902,3.738933 0,2.358789 1.07902,3.730568 1.087386,1.371778 2.927576,1.371778 1.840191,0 2.910847,-1.371778 1.079021,-1.371779 1.079021,-3.730568 0,-2.367154 -1.079021,-3.738933 -1.070656,-1.371778 -2.910847,-1.371778 z m 0,-1.3717786 q 2.626454,0 4.19898,1.7649096 1.572527,1.756546 1.572527,4.71758 0,2.952669 -1.572527,4.717579 -1.572526,1.756546 -4.19898,1.756546 -2.634818,0 -4.215709,-1.756546 -1.572526,-1.756545 -1.572526,-4.717579 0,-2.961034 1.572526,-4.71758 1.580891,-1.7649096 4.215709,-1.7649096 z"
         style="font-family:'Lohit Kannada';-inkscape-font-specification:'Lohit Kannada';fill:#03a9f4;fill-opacity:0.84552783"
         id="path9544" />
      <path
         d="m 56.616719,10.013324 v 1.781639 q -0.853179,-0.794628 -1.823461,-1.18776 -0.961918,-0.393131 -2.049303,-0.393131 -2.141313,0 -3.278885,1.313227 -1.137573,1.304862 -1.137573,3.780755 0,2.467528 1.137573,3.780755 1.137572,1.304862 3.278885,1.304862 1.087385,0 2.049303,-0.393131 0.970282,-0.393132 1.823461,-1.18776 v 1.76491 q -0.886637,0.602244 -1.882013,0.903366 -0.987011,0.301123 -2.091126,0.301123 -2.835566,0 -4.466644,-1.731452 -1.631078,-1.739817 -1.631078,-4.742673 0,-3.011221 1.631078,-4.742673 1.631078,-1.7398166 4.466644,-1.7398166 1.120844,0 2.107855,0.3011221 0.995376,0.2927576 1.865284,0.8866375 z"
         style="font-family:'Lohit Kannada';-inkscape-font-specification:'Lohit Kannada';fill:#03a9f4;fill-opacity:0.84552783"
         id="path9546" />
      <path
         d="m 63.400329,10.715942 -2.291874,6.214825 h 4.592112 z M 62.446776,9.051406 h 1.915471 l 4.759402,12.488202 h -1.756546 l -1.137572,-3.203604 h -5.62931 l -1.137573,3.203604 h -1.781639 z"
         style="font-family:'Lohit Kannada';-inkscape-font-specification:'Lohit Kannada';fill:#03a9f4;fill-opacity:0.84552783"
         id="path9548" />
      <path
         d="m 72.634742,10.439913 v 9.711188 h 2.040938 q 2.584632,0 3.780755,-1.171031 1.204489,-1.17103 1.204489,-3.69711 0,-2.50935 -1.204489,-3.672016 -1.196123,-1.171031 -3.780755,-1.171031 z m -1.68963,-1.388507 h 3.471269 q 3.630194,0 5.328188,1.513975 1.697994,1.50561 1.697994,4.717579 0,3.228698 -1.706359,4.742673 -1.706358,1.513975 -5.319823,1.513975 h -3.471269 z"
         style="font-family:'Lohit Kannada';-inkscape-font-specification:'Lohit Kannada';fill:#03a9f4;fill-opacity:0.84552783"
         id="path9550" />
      <path
         d="m 88.008697,10.715942 -2.291874,6.214825 h 4.592112 z M 87.055144,9.051406 h 1.915471 l 4.759402,12.488202 h -1.756546 l -1.137572,-3.203604 h -5.62931 l -1.137573,3.203604 h -1.781639 z"
         style="font-family:'Lohit Kannada';-inkscape-font-specification:'Lohit Kannada';fill:#03a9f4;fill-opacity:0.84552783"
         id="path9552" />
    </g>
    <g
       id="g8009"
       transform="matrix(0.02632944,0,0,0.02632944,2.055468,7.0844661)"
       style="fill:#03a9f4;fill-opacity:0.84552783">
      <path
         d="M 611.502,203.367 C 607.613,150.151 580.581,102.529 518.226,78.361 448.865,51.477 366.266,65.328 301.456,95.174 233.672,126.39 150.143,189.109 129.774,266.779 c -7.962,30.357 -5.303,63.94 10.093,91.288 19.789,35.152 59.002,56.863 99.094,61.324 55.248,6.147 112.773,-16.493 155.435,-50.741 24.317,-19.521 46.5,-44.992 58.997,-73.774 11.212,-25.821 13.864,-56.419 1.925,-81.911 -16.243,-34.679 -54.683,-49.835 -91.121,-44.132 -4.787,0.735 -9.337,1.776 -13.657,3.016 -4.322,1.234 -8.419,2.662 -12.295,4.256 -7.765,3.148 -14.653,6.919 -20.773,10.925 -6.109,4.03 -11.447,8.348 -16.022,12.747 -1.037,1.043 -2.056,2.067 -3.054,3.071 -1.08,1.074 -2.021,2.094 -2.964,3.1 -1.877,2.012 -3.588,3.995 -5.207,5.882 -3.208,3.799 -5.955,7.307 -8.307,10.499 -4.731,6.35 -8.047,11.323 -10.284,14.671 -1.1,1.684 -1.934,2.961 -2.494,3.817 -0.55,0.863 -0.829,1.301 -0.829,1.301 -0.92,1.449 -0.97,3.367 0.036,4.894 1.366,2.076 4.157,2.652 6.233,1.285 0,0 0.433,-0.285 1.288,-0.846 0.846,-0.567 2.108,-1.413 3.772,-2.529 3.307,-2.238 8.187,-5.589 14.48,-9.753 6.333,-4.129 14.012,-9.048 23.248,-13.695 2.175,-1.069 4.431,-2.096 6.846,-3.028 2.399,-0.946 4.893,-1.86 7.522,-2.638 5.229,-1.598 10.883,-2.863 16.803,-3.589 2.961,-0.352 5.978,-0.597 9.027,-0.671 3.05,-0.067 6.128,0.03 9.183,0.299 10.759,1.003 24.149,4.372 30.659,13.714 4.245,6.092 4.815,14.123 3.391,21.409 -2.471,12.644 -10.28,23.585 -18.883,33.174 -30.278,33.744 -74.119,56.946 -119.526,60.718 -37.814,2.947 -73.075,-14.422 -78.121,-55.732 -3.607,-29.523 10.253,-58.809 29.349,-81.612 26.954,-32.186 60.518,-59.114 98.754,-76.011 14.09,-6.227 28.7,-11.46 43.667,-15.311 39.803,-10.321 86.856,-13.345 125.381,3.353 36.924,16.004 60.458,52.144 59.714,92.483 -0.223,11.808 -2.412,23.851 -6.114,35.878 -3.66,12.037 -8.996,24.017 -15.499,35.56 -6.539,11.542 -14.238,22.664 -22.764,33.124 C 454.222,364.819 387.62,404.605 326.223,430.7 252.114,462.198 110.559,499.434 57.635,412.857 30.047,367.726 40.167,309.994 55.133,262.396 c 0.541,-1.722 0.006,-3.684 -1.497,-4.867 -1.942,-1.528 -4.754,-1.193 -6.282,0.748 0,0 -1.277,1.622 -3.752,4.764 -0.624,0.768 -1.287,1.718 -2.039,2.741 -0.746,1.027 -1.563,2.153 -2.451,3.375 -22.006,30.295 -36.716,66.932 -38.848,104.465 -1.962,34.546 6.992,69.97 26.952,98.236 23.939,33.9 62.223,55.79 102.375,66.286 63.644,16.637 134.014,11.022 196.48,-7.885 14.716,-4.454 29.379,-9.645 43.893,-15.61 14.505,-5.984 28.826,-12.8 42.955,-20.315 51.202,-27.233 99.882,-64.099 136.409,-109.452 39.462,-48.997 66.735,-119.103 62.174,-181.515 z"
         id="path8007"
         style="fill:#03a9f4;fill-opacity:0.84552783" />
    </g>
  </g>
</svg>
